<svg width="1437" height="1181" viewBox="0 0 1437 1181" fill="none" xmlns="http://www.w3.org/2000/svg">
<path d="M269.001 1018.83C268.636 1021.38 264.972 1015.14 264.354 1012.63C252.889 966.169 246.081 917.86 238.796 870.642C215.253 718.051 210.122 562.078 228.211 408.53C240.718 302.369 259.894 193.615 305.918 96.1517C328.582 48.158 376.107 11.3897 429.062 2.18022C442.82 -0.212518 455.758 15.9068 462.365 25.1568C495.065 70.9357 507.795 130.551 513.224 185.476C523.846 292.951 504.535 438.475 415.121 511.795C338.591 574.55 225.68 595.923 128.56 590.277C93.3989 588.232 34.4799 578.051 8.77211 549.487C-5.53649 533.588 5.05551 488.7 14.1935 473.587C33.9857 440.853 69.87 441.02 101.195 459.646C172.783 502.212 227.069 601.361 250.413 678.31C269.368 740.792 275.787 807.868 299.98 868.835C332.11 949.802 388.745 1063.11 490.763 1059.88C577.773 1057.11 628.718 982.658 657.279 907.818C697.318 802.9 705.813 690.519 705.813 579.434C705.813 556.027 705.813 532.62 705.813 509.213C705.813 500.92 703.498 555.613 702.716 562.653C693.181 648.461 686.797 729.846 687.226 816.428C687.518 875.56 691.449 948.463 764.675 953.513C812.237 956.793 864.632 945.928 897.371 909.883C959.56 841.412 985.905 749.622 988.761 658.948C990.405 606.743 979.983 450.27 979.983 502.501C979.983 599.226 979.983 695.952 979.983 792.677C979.983 836.048 979.983 879.42 979.983 922.791C979.983 954.993 984.417 992.216 972.496 1022.96C960.766 1053.21 949.385 1005.06 947.713 998.175C930.266 926.375 930.078 846.054 938.677 773.056C956.586 621.016 1035.41 514.821 1159.41 430.99C1187.26 412.16 1215.17 398.076 1244.86 383.229C1246.93 382.192 1220.31 387.681 1218.01 388.651C1185.5 402.338 1160.54 430.752 1139.27 457.839C1085.12 526.814 1041.75 608.027 1008.38 688.895C981.179 754.819 960.505 825.194 947.971 895.426C937.601 953.53 928.439 1027.81 952.618 1083.89C973.805 1133.02 1026.21 1152.75 1074.47 1165.21C1150.3 1184.77 1227.99 1182.03 1304.75 1170.11C1345.74 1163.75 1385.47 1151.35 1426.35 1144.81C1432.92 1143.76 1432.8 1144.81 1435.38 1139.65" stroke="black" stroke-width="3" stroke-linecap="round"/>
</svg>
