<svg width="90" height="31" viewBox="0 0 90 31" fill="none" xmlns="http://www.w3.org/2000/svg">
<path d="M89.9925 21.885C89.6022 22.3387 89.284 22.9094 88.8081 23.2228C87.7318 23.9338 86.6434 23.544 85.6842 22.2405C81.6986 23.9915 78.282 23.2571 76.0948 20.1808C75.1171 18.8001 74.6114 17.1199 74.6579 15.4066C74.7044 13.6934 75.3005 12.0454 76.3515 10.7242C77.4656 9.3342 79.0199 8.40166 80.7358 8.09367C82.4517 7.78568 84.2171 8.12235 85.7157 9.04338C86.8731 7.79602 87.8023 7.49509 88.8396 8.19985C89.311 8.51949 89.6187 9.09795 90 9.55947L89.9925 21.885ZM78.5387 15.6575C78.5564 16.603 78.9314 17.5033 79.5827 18.164C80.2341 18.8248 81.1094 19.193 82.0199 19.1891C83.9038 19.1751 85.495 17.5379 85.4845 15.6217C85.474 13.7054 83.8768 12.0448 82.0244 12.0355C81.1005 12.0384 80.2153 12.4209 79.5621 13.0996C78.909 13.7783 78.5411 14.6979 78.5387 15.6575ZM61.5066 23.0762V27.5355C61.5066 27.9253 61.5201 28.3151 61.5066 28.7049C61.4405 30.038 60.4978 30.9689 59.2143 30.9845C57.9308 31.0001 56.925 30.077 56.8425 28.7813C56.7899 27.9534 56.8185 27.1177 56.817 26.2866C56.817 21.1412 56.8305 15.9959 56.8065 10.8505C56.8065 9.69824 57.0406 8.71906 58.0839 8.15931C59.0792 7.62294 60.0009 7.81473 60.8656 8.55379C61.0007 8.66761 61.367 8.58809 61.5816 8.49142C66.0701 6.46446 71.2506 9.15408 72.2323 14.0734C72.8208 17.0203 72.0552 19.6163 69.913 21.6495C67.7274 23.7248 65.1469 24.2425 62.3097 23.3444C62.089 23.268 61.8789 23.1947 61.5066 23.0762ZM64.7596 12.0059C64.2786 12.0011 63.8015 12.0953 63.3557 12.2829C62.9099 12.4705 62.5042 12.7479 62.1621 13.0991C61.82 13.4503 61.5481 13.8683 61.3622 14.329C61.1762 14.7898 61.0799 15.2842 61.0787 15.7838C61.0755 16.5339 61.2864 17.2682 61.6847 17.894C62.083 18.5197 62.6509 19.0088 63.3167 19.2994C63.9824 19.5901 64.7162 19.6693 65.4253 19.5271C66.1344 19.3849 66.787 19.0276 67.3007 18.5003C67.8144 17.9731 68.1662 17.2995 68.3116 16.5647C68.4569 15.83 68.3894 15.0669 68.1175 14.372C67.8456 13.6771 67.3815 13.0814 66.7838 12.6603C66.1862 12.2391 65.4818 12.0114 64.7596 12.0059ZM42.9973 23.0762C42.9973 25.0143 43.0138 26.8308 42.9898 28.6472C42.9914 29.1325 42.8456 29.6059 42.5731 30C42.3006 30.3942 41.9153 30.6891 41.4722 30.8426C40.5204 31.1544 39.5747 31.0359 38.9487 30.1877C38.5754 29.678 38.3602 29.0624 38.3317 28.4227C38.2867 22.4213 38.3062 16.4168 38.3032 10.4186C38.3032 9.39576 38.686 8.59745 39.5792 8.12969C40.4724 7.66192 41.3986 7.743 42.1672 8.43217C42.5635 8.78611 42.8427 8.57874 43.1775 8.43217C47.6419 6.51435 52.6347 9.11666 53.6705 13.9486C54.3175 16.9548 53.5505 19.5774 51.3603 21.6527C49.1701 23.728 46.6346 24.216 43.8335 23.3491C43.5918 23.2773 43.3591 23.1994 42.9973 23.0762ZM46.1723 19.5555C46.8918 19.5589 47.5962 19.3405 48.1963 18.928C48.7963 18.5155 49.2651 17.9274 49.5433 17.2381C49.8215 16.5488 49.8965 15.7893 49.759 15.0557C49.6215 14.3221 49.2776 13.6473 48.7708 13.1167C48.264 12.5861 47.617 12.2236 46.9118 12.0751C46.2066 11.9265 45.4748 11.9985 44.809 12.282C44.1432 12.5656 43.5733 13.0478 43.1715 13.6678C42.7696 14.2878 42.5539 15.0177 42.5515 15.7651C42.5455 17.8014 44.2133 19.5477 46.1723 19.5618V19.5555ZM19.9246 10.8068V2.61634C19.9276 1.02907 20.8658 0 22.2889 0C23.712 0 24.6322 1.06494 24.6322 2.63973C24.6322 7.71026 24.6427 12.7746 24.6232 17.8513C24.6232 18.5155 24.7388 18.9428 25.4113 19.2219C26.5086 19.6896 26.9905 20.9167 26.6573 22.0643C26.5016 22.632 26.1561 23.1233 25.6827 23.45C25.2094 23.7767 24.6395 23.9173 24.0753 23.8465C21.5668 23.5627 19.9501 21.6948 19.9291 18.9973C19.9066 16.2672 19.9246 13.537 19.9246 10.8068ZM11.5827 15.829L15.283 19.3513C16.4434 20.4567 16.589 21.991 15.6358 23.07C14.6825 24.1489 13.2039 24.1255 12.033 23.0216C10.1806 21.2816 8.32916 19.5405 6.47873 17.7983C5.27781 16.6663 5.2673 15.065 6.46222 13.9221C8.33366 12.1301 10.2136 10.3448 12.1021 8.56626C13.2144 7.52004 14.7186 7.5559 15.6508 8.61772C16.583 9.67953 16.4629 11.1732 15.3761 12.2288C14.1391 13.4294 12.8767 14.6035 11.5827 15.829ZM29.7842 15.7776C29.7842 13.9861 29.7752 12.1914 29.7842 10.403C29.7932 8.86407 30.7794 7.83188 32.2085 7.84123C33.5866 7.84903 34.5623 8.88746 34.5668 10.3921C34.5759 14.0032 34.5759 17.6133 34.5668 21.2223C34.5668 22.7519 33.5295 23.873 32.18 23.862C30.7944 23.8449 29.7917 22.7566 29.7782 21.2317C29.7767 19.4136 29.7842 17.5956 29.7842 15.7776ZM0.0177632 6.27423C0.0177632 5.07988 0.00275168 3.88553 0.0177632 2.68807C0.0507886 1.0244 0.977001 0 2.4016 0C3.86222 0.00779602 4.80345 1.09144 4.81245 2.75511C4.81245 5.19682 4.82146 7.63854 4.81245 10.0834C4.82216 10.6066 4.67028 11.1193 4.37907 11.5463C4.08786 11.9734 3.67262 12.2923 3.19421 12.4565C2.22596 12.7855 1.11211 12.5188 0.570188 11.6628C0.25995 11.1409 0.0784546 10.5475 0.0417817 9.93524C-0.0362783 8.72062 0.0192644 7.49509 0.0177632 6.27423Z" fill="#0A0F0D" fill-opacity="0.8"/>
<path d="M4.68852 21.2692C4.68852 22.7707 3.79684 23.7328 2.39626 23.7312C1.06323 23.7312 0.1115 22.7302 0.105495 21.3222C0.0994907 19.9143 1.11277 18.815 2.42328 18.8275C3.73379 18.84 4.68552 19.8597 4.68852 21.2692Z" fill="#0A0F0D" fill-opacity="0.8"/>
</svg>
