<svg width="78" height="31" viewBox="0 0 78 31" fill="none" xmlns="http://www.w3.org/2000/svg">
<path d="M77.0271 0H0.0131854V2.78597H77.0271V0ZM77.0271 28.2341H0.0131854V31H77.0271V28.2341ZM74.2868 15.4638C74.2868 13.0482 74.0539 11.5706 72.4313 11.5706H71.0737V19.3246H72.4313C74.0539 19.3246 74.2868 17.8511 74.2868 15.4275V15.4638ZM77.0271 15.4275C77.0271 19.1797 75.9704 21.9818 72.4313 21.9818H68.6343C68.6009 21.9842 68.5673 21.9785 68.5359 21.9652C68.5046 21.9519 68.4761 21.9312 68.4524 21.9045C68.4287 21.8779 68.4103 21.8459 68.3984 21.8106C68.3865 21.7753 68.3815 21.7376 68.3836 21.7V9.17114C68.3815 9.13352 68.3865 9.09582 68.3984 9.06063C68.4103 9.02536 68.4287 8.99335 68.4524 8.96662C68.4761 8.93998 68.5046 8.91929 68.5359 8.90596C68.5673 8.89264 68.6009 8.88703 68.6343 8.88938H72.4313C75.9704 8.88938 77.0271 11.7075 77.0271 15.4436V15.4275ZM62.8959 19.6186V21.7161C62.898 21.7537 62.8929 21.7914 62.8811 21.8267C62.8693 21.862 62.8509 21.894 62.8271 21.9206C62.8034 21.9472 62.7749 21.9679 62.7435 21.9813C62.7121 21.9946 62.6786 22.0003 62.6452 21.9979H55.3414C55.3079 22.0003 55.2744 21.9946 55.243 21.9813C55.2116 21.9679 55.1831 21.9472 55.1594 21.9206C55.1357 21.894 55.1173 21.862 55.1054 21.8267C55.0936 21.7914 55.0886 21.7537 55.0907 21.7161V9.17114C55.0886 9.13352 55.0936 9.09582 55.1054 9.06063C55.1173 9.02536 55.1357 8.99335 55.1594 8.96662C55.1831 8.93998 55.2116 8.91929 55.243 8.90596C55.2744 8.89264 55.3079 8.88703 55.3414 8.88938H62.6308C62.6643 8.88703 62.6979 8.89264 62.7292 8.90596C62.7605 8.91929 62.7891 8.93998 62.8128 8.96662C62.8365 8.99335 62.8549 9.02536 62.8668 9.06063C62.8786 9.09582 62.8837 9.13352 62.8816 9.17114V11.2727C62.8837 11.3103 62.8786 11.348 62.8668 11.3833C62.8549 11.4186 62.8365 11.4506 62.8128 11.4772C62.7891 11.5039 62.7605 11.5245 62.7292 11.5379C62.6979 11.5513 62.6643 11.5569 62.6308 11.5545H57.7843V14.0909H62.2225C62.256 14.0886 62.2895 14.0942 62.3208 14.1075C62.3522 14.1209 62.3808 14.1415 62.4044 14.1682C62.4282 14.1949 62.4465 14.2269 62.4584 14.2622C62.4703 14.2975 62.4753 14.3351 62.4732 14.3727V16.4703C62.4753 16.5079 62.4703 16.5455 62.4584 16.5808C62.4465 16.6161 62.4282 16.6481 62.4044 16.6747C62.3808 16.7015 62.3522 16.7221 62.3208 16.7355C62.2895 16.7488 62.256 16.7544 62.2225 16.7521H57.7843V19.3649H62.6487C62.6817 19.3613 62.715 19.3658 62.7462 19.3782C62.7774 19.3906 62.8059 19.4105 62.8295 19.4367C62.8531 19.4628 62.8712 19.4945 62.8827 19.5293C62.8942 19.5643 62.8987 19.6016 62.8959 19.6387V19.6186ZM49.7247 18.282C49.7247 21.1001 48.2238 22.3079 45.2866 22.3079C42.5463 22.3079 41.1995 21.2611 40.9882 18.6403C40.981 18.602 40.9818 18.5624 40.9903 18.5245C40.9989 18.4866 41.015 18.4515 41.0374 18.4215C41.0598 18.3917 41.088 18.3679 41.1198 18.3521C41.1516 18.3363 41.1862 18.3288 41.2209 18.3303H43.2269C43.3774 18.3303 43.4347 18.4349 43.4777 18.5839C43.6962 19.2562 44.2263 19.5864 45.2687 19.5864C46.3863 19.5864 47.0776 19.2321 47.0776 18.3786C47.0776 17.5251 46.8269 17.042 45.2113 16.6836C43.1445 16.2246 41.1458 15.2625 41.1458 12.6214C41.1458 10.2059 42.4532 8.71619 45.2113 8.71619C47.6687 8.71619 49.1516 9.76299 49.3594 12.2913C49.3673 12.3311 49.3673 12.3724 49.3594 12.4123C49.3515 12.4522 49.3359 12.4896 49.3136 12.5218C49.2914 12.5542 49.2631 12.5806 49.2308 12.5992C49.1984 12.6178 49.1628 12.6281 49.1265 12.6295H47.2961C47.1457 12.6295 47.0884 12.4966 47.0454 12.3476C46.8878 11.8041 46.3612 11.4136 45.2795 11.4136C44.2872 11.4136 43.7893 11.929 43.7893 12.6214C43.7893 13.181 43.7571 13.7648 45.24 14.0829C47.4251 14.5378 49.7319 15.3994 49.7319 18.2739L49.7247 18.282ZM30.414 15.0773H32.1691C33.1757 15.0773 33.5697 14.88 33.5697 13.3099C33.5697 11.7397 33.1793 11.5505 32.1691 11.5505H30.414V15.0773ZM36.0163 21.9979H33.9494C33.8864 22.0033 33.8236 21.9848 33.771 21.9454C33.7184 21.906 33.6791 21.848 33.6593 21.7805L32.0688 17.7545H30.4104V21.7322C30.4125 21.7698 30.4074 21.8075 30.3956 21.8428C30.3837 21.878 30.3653 21.91 30.3416 21.9367C30.3179 21.9634 30.2894 21.984 30.258 21.9973C30.2267 22.0107 30.1931 22.0164 30.1596 22.014H27.9531C27.9193 22.0163 27.8854 22.0106 27.8537 21.9973C27.822 21.9841 27.7931 21.9636 27.7689 21.937C27.7446 21.9105 27.7255 21.8786 27.7128 21.8434C27.7002 21.8081 27.6941 21.7702 27.6952 21.7322V9.17114C27.6941 9.13319 27.7002 9.09532 27.7128 9.06004C27.7255 9.02477 27.7446 8.99285 27.7689 8.96637C27.7931 8.93981 27.822 8.91929 27.8537 8.90605C27.8854 8.89281 27.9193 8.88711 27.9531 8.88938H32.1513C35.2998 8.88938 36.1237 10.4997 36.1237 13.3179C36.1237 15.2826 35.7225 16.6514 34.433 17.3036L36.1918 21.6638C36.2706 21.8651 36.1918 21.9979 36.0019 21.9979H36.0163ZM22.1789 19.6186V21.7161C22.181 21.7537 22.1759 21.7914 22.164 21.8267C22.1522 21.862 22.1338 21.894 22.11 21.9206C22.0864 21.9472 22.0578 21.9679 22.0265 21.9813C21.9951 21.9946 21.9616 22.0003 21.9281 21.9979H14.6243C14.5908 22.0003 14.5573 21.9946 14.526 21.9813C14.4946 21.9679 14.466 21.9472 14.4424 21.9206C14.4187 21.894 14.4003 21.862 14.3884 21.8267C14.3765 21.7914 14.3715 21.7537 14.3736 21.7161V9.17114C14.3715 9.13352 14.3765 9.09582 14.3884 9.06063C14.4003 9.02536 14.4187 8.99335 14.4424 8.96662C14.466 8.93998 14.4946 8.91929 14.526 8.90596C14.5573 8.89264 14.5908 8.88703 14.6243 8.88938H21.9137C21.9472 8.88703 21.9808 8.89264 22.0122 8.90596C22.0436 8.91929 22.072 8.93998 22.0958 8.96662C22.1194 8.99335 22.1379 9.02536 22.1497 9.06063C22.1616 9.09582 22.1666 9.13352 22.1645 9.17114V11.2727C22.1666 11.3103 22.1616 11.348 22.1497 11.3833C22.1379 11.4186 22.1194 11.4506 22.0958 11.4772C22.072 11.5039 22.0436 11.5245 22.0122 11.5379C21.9808 11.5513 21.9472 11.5569 21.9137 11.5545H17.0637V14.0909H21.5054C21.5389 14.0886 21.5725 14.0942 21.6038 14.1075C21.6351 14.1209 21.6637 14.1415 21.6874 14.1682C21.7111 14.1949 21.7295 14.2269 21.7414 14.2622C21.7532 14.2975 21.7582 14.3351 21.7562 14.3727V16.4703C21.7582 16.5079 21.7532 16.5455 21.7414 16.5808C21.7295 16.6161 21.7111 16.6481 21.6874 16.6747C21.6637 16.7015 21.6351 16.7221 21.6038 16.7355C21.5725 16.7488 21.5389 16.7544 21.5054 16.7521H17.0637V19.3649H21.9281C21.9612 19.3613 21.9946 19.3659 22.026 19.3783C22.0574 19.3907 22.086 19.4105 22.1099 19.4366C22.1337 19.4626 22.1522 19.4942 22.1641 19.5291C22.176 19.564 22.1811 19.6014 22.1789 19.6387V19.6186ZM6.85488 8.88938H9.09369C9.27636 8.88938 9.32647 9.02217 9.29428 9.20742L6.6113 21.7685C6.59482 21.8372 6.55754 21.8972 6.50589 21.9384C6.45425 21.9795 6.39146 21.9992 6.32832 21.9939H2.97912C2.91598 21.9992 2.85319 21.9795 2.80154 21.9384C2.74989 21.8972 2.71262 21.8372 2.69614 21.7685L0.0131854 9.20742C-0.029799 9.02217 0.0310962 8.88938 0.21378 8.88938H2.44539C2.50919 8.87974 2.57387 8.89759 2.62638 8.93948C2.6789 8.98129 2.71534 9.04396 2.72837 9.11484L4.51939 18.8496H4.77013L6.56115 9.11484C6.57418 9.04396 6.61063 8.98129 6.66314 8.93948C6.71566 8.89759 6.78034 8.87974 6.84413 8.88938" fill="#0A0F0D" fill-opacity="0.8"/>
</svg>
