<svg width="102" height="23" viewBox="0 0 102 23" fill="none" xmlns="http://www.w3.org/2000/svg">
<path d="M9.5675 0.137177V0.845924C8.73653 0.937375 8.17506 1.07455 7.83817 1.23459C7.50129 1.39463 7.32161 1.76044 7.32161 2.30914C7.32161 2.56064 7.36654 2.81213 7.43391 3.04076C7.50129 3.26938 7.61358 3.61232 7.79325 4.06959L12.8016 16.324L17.0464 5.48708C17.2484 4.96124 17.4282 4.38967 17.6078 3.81809C17.7874 3.22366 17.8773 2.78927 17.8773 2.49205C17.8773 1.87475 17.5854 1.41749 17.0239 1.14314C16.6646 0.983102 16.1929 0.89165 15.5865 0.845924V0.137177H22.2119V0.845924C21.4482 0.914512 20.8868 1.16601 20.55 1.64612C20.2131 2.10338 19.7189 3.15507 19.0676 4.82405L12.2401 22.1998C12.1054 22.497 12.0155 22.7028 11.9257 22.8171C11.8359 22.9315 11.746 23 11.6113 23C11.4541 23 11.3193 22.9086 11.207 22.7256C11.0947 22.5428 10.9824 22.3141 10.8477 22.0398L3.59344 4.34394C3.0095 2.90358 2.38064 1.94334 1.72934 1.41749C1.32508 1.12028 0.763605 0.937375 0 0.845924V0.137177H9.5675ZM30.9484 0.0685888V15.501C30.9484 16.5984 31.1056 17.4672 31.3976 18.1302C31.9815 19.342 33.0821 19.9593 34.6542 19.9593C35.7322 19.9593 36.7877 19.5935 37.8433 18.8847C38.4273 18.496 39.0336 17.9245 39.64 17.2157V4.001C39.64 2.74354 39.393 1.94334 38.9213 1.55467C38.4497 1.16601 37.5065 0.937375 36.0916 0.845924V0.0457258H43.6602V17.2157C43.6602 18.2674 43.8398 18.999 44.2216 19.4105C44.6035 19.8221 45.3895 19.9821 46.5798 19.9364V20.6451C45.7264 20.8738 45.0976 21.0566 44.6933 21.1709C44.2891 21.2852 43.6152 21.514 42.672 21.8111C42.2677 21.9483 41.3918 22.2913 40.0219 22.8399C39.932 22.8399 39.9095 22.7943 39.8871 22.7256C39.8647 22.6571 39.8647 22.5656 39.8647 22.4513V18.496C38.7866 19.7992 37.7984 20.7595 36.9001 21.3997C35.5526 22.3598 34.1152 22.8399 32.6104 22.8399C31.2404 22.8399 29.9378 22.337 28.7025 21.3539C27.4673 20.3708 26.8385 18.7246 26.8385 16.4156V3.90954C26.8385 2.62922 26.5914 1.76044 26.0524 1.32604C25.7155 1.05169 24.9968 0.868787 23.8963 0.754474V0.0457258H30.9484V0.0685888ZM51.9026 3.24652C53.8566 1.07455 56.3719 0 59.4488 0C62.5032 0 65.0411 1.02883 67.0624 3.08649C69.0613 5.14413 70.0719 7.86482 70.0719 11.2942C70.0719 14.4264 69.1062 17.17 67.1523 19.4792C65.1983 21.7882 62.683 22.9542 59.5836 22.9542C56.619 22.9542 54.1036 21.834 52.0374 19.6164C49.9711 17.3986 48.9604 14.5865 48.9604 11.2256C48.9604 8.07057 49.9263 5.41849 51.9026 3.24652ZM55.5859 2.5835C54.0362 4.02386 53.2501 6.5159 53.2501 10.0368C53.2501 12.8489 53.879 15.4781 55.1367 17.9016C56.3944 20.3479 58.1238 21.5596 60.3472 21.5596C62.099 21.5596 63.424 20.7366 64.3674 19.1133C65.3106 17.49 65.7822 15.341 65.7822 12.7118C65.7822 9.96819 65.1759 7.40755 63.9856 4.9841C62.7952 2.56064 61.0434 1.3489 58.7751 1.3489C57.5398 1.3489 56.4842 1.76044 55.5859 2.5835ZM72.4076 22.0398C73.8674 21.9254 74.8332 21.6511 75.3048 21.2396C75.7765 20.8509 76.0235 20.0049 76.0235 18.7018V7.75049C76.0235 6.17296 75.8663 5.02982 75.5743 4.34394C75.2824 3.65806 74.7434 3.3151 73.9573 3.3151C73.8001 3.3151 73.5755 3.33797 73.3284 3.3837C73.0589 3.42943 72.7894 3.47515 72.4975 3.54374V2.76641C73.3959 2.44633 74.3391 2.12625 75.2823 1.80617C76.2482 1.46323 76.8995 1.23459 77.2813 1.07455C78.0673 0.777336 78.8983 0.434394 79.7518 0.0457258C79.864 0.0457258 79.9314 0.0914516 79.9538 0.182903C79.9763 0.274354 79.9987 0.457256 79.9987 0.73161V4.73261C80.9869 3.29224 81.9526 2.14911 82.8735 1.3489C83.7943 0.548708 84.7601 0.137177 85.7482 0.137177C86.5344 0.137177 87.1857 0.388668 87.6797 0.89165C88.1738 1.39463 88.4209 2.01192 88.4209 2.76641C88.4209 3.42943 88.2412 4.001 87.8594 4.45825C87.4776 4.9155 87.0059 5.14413 86.4221 5.14413C85.8381 5.14413 85.2542 4.86978 84.6478 4.29821C84.0639 3.72664 83.5922 3.45229 83.2553 3.45229C82.7163 3.45229 82.0649 3.90954 81.2565 4.80119C80.4704 5.71571 80.0661 6.65308 80.0661 7.61332V18.4503C80.0661 19.8221 80.3805 20.7595 81.0318 21.2852C81.6607 21.8111 82.7387 22.0626 84.2211 22.0398V22.8171H72.4076V22.0398ZM97.4044 0.137177C97.6065 0.0685885 97.5841 0.365806 97.5841 0.502982V17.8102C97.5841 19.6391 97.8087 20.7823 98.2354 21.2396C98.6846 21.6968 99.6503 21.994 101.2 22.1312V22.8399H89.6561V22.1312C91.363 21.9712 92.4186 21.6739 92.8677 21.2625C93.3169 20.828 93.519 19.7078 93.519 17.833V6.17296C93.519 5.14413 93.4516 4.41253 93.3169 4.02386C93.0699 3.36084 92.5982 3.04076 91.8346 3.04076C91.655 3.04076 91.4978 3.06362 91.3405 3.08649C91.1833 3.10935 90.7117 3.24652 89.9256 3.47515V2.53777C89.9256 2.51491 93.3168 1.44036 97.4044 0.137177Z" fill="#0A0F0D" fill-opacity="0.8"/>
</svg>
