<svg width="146" height="27" viewBox="0 0 146 27" fill="none" xmlns="http://www.w3.org/2000/svg">
<path d="M0 0.174715H3.4543L8.72069 14.6281L13.8738 0.174715H17.3282V26.7109H13.8738V9.54045L10.0231 21.1031H7.305L3.4543 9.54045V26.7688H0V0.174715ZM24.803 0.174715H29.4465L34.3731 26.7109H30.6923L29.673 20.9875H25.0295L25.4825 18.7327C25.6524 17.9234 26.0488 17.5187 26.7283 17.5187H29.0501L27.0681 6.36072L23.3873 26.7109H19.7065L24.803 0.174715ZM36.9214 0.174715H40.2624L46.3217 16.5936V0.174715H49.8325V26.7109H46.718L40.4324 9.71389V26.7688H36.9214V0.174715ZM53.4568 21.5078L53.4001 19.0796H57.1942L57.2507 21.6812C57.2507 22.8953 58.1002 23.5312 59.2894 23.5312H60.0256C61.2714 23.5312 62.0642 22.8953 62.0642 21.6812V19.1374C62.0642 16.6514 60.6484 16.2468 57.5906 14.4546C53.7399 12.4311 53.4568 11.1592 53.4568 8.32638V5.49353C53.4568 1.85129 55.7218 -0.0565371 58.893 0.00127603H60.0256C63.1967 0.00127603 65.6318 1.85129 65.6318 5.49353V7.74823C65.6318 8.49981 65.1787 8.90451 64.3858 9.02013L61.8942 9.54045V5.26227C61.8942 4.0482 61.0448 3.41225 59.8556 3.41225H59.1195C57.8737 3.41225 57.1942 4.0482 57.1942 5.26227V8.32638C57.1942 10.0608 58.0436 10.6389 59.2328 11.3904L62.4039 13.0092C65.4052 14.5124 65.8016 16.2468 65.8016 18.7327V21.5078C65.8016 25.1501 63.4232 27 60.1954 27H59.0629C55.8351 26.9422 53.4568 25.0922 53.4568 21.5078ZM69.3692 21.5078V5.49353C69.3692 1.85129 71.5776 -0.0565371 74.8055 0.00127603H75.938C79.1091 0.00127603 81.3743 1.67786 81.3743 5.26227V8.0373C81.3743 8.78887 80.9212 9.19357 80.1285 9.30919L77.6368 9.88732V5.26227C77.6368 4.0482 76.9573 3.41225 75.7114 3.41225H74.9753C73.7295 3.41225 73.1066 4.0482 73.1066 5.26227V21.739C73.1066 22.9531 73.7295 23.5891 74.9753 23.5891H75.7114C76.9573 23.5891 77.6368 22.9531 77.6368 21.739V19.0796H81.4309L81.3743 21.4499C81.3743 25.0921 79.1657 26.9422 75.938 26.9422H74.8055C71.5776 26.9422 69.3692 25.0922 69.3692 21.5078ZM88.4527 0.174715H93.0962L98.0228 26.7109H94.342L93.3228 20.9875H88.6793L89.1322 18.7327C89.3022 17.9234 89.6419 17.5187 90.3782 17.5187H92.6998L90.7179 6.36072L87.037 26.7109H83.3562L88.4527 0.174715ZM100.628 0.174715H107.536C110.708 0.116902 112.973 1.96692 112.973 5.66697V12.1999C112.973 15.8421 110.764 17.7499 107.536 17.6343H104.931V15.4952C104.931 14.4546 105.271 14.1655 106.234 14.1655H107.31C108.556 14.1655 109.178 13.5295 109.178 12.3155V5.43572C109.178 4.22163 108.556 3.58569 107.31 3.58569H104.422V26.7688H100.628V0.174715ZM116.484 0.174715H127.016V3.81695H120.164V23.0688H126.96V26.7109H116.427L116.484 0.174715ZM120.731 12.6624C120.731 11.6217 121.07 11.3326 122.033 11.3326H126.394V14.9749H120.731V12.6624ZM130.584 0.174715H137.492C140.664 0.116902 142.929 1.96692 142.929 5.66697V21.3343C142.929 24.9765 140.72 26.8844 137.492 26.8266H130.584V0.174715ZM137.266 23.3C138.511 23.3 139.135 22.6641 139.135 21.4499V5.43572C139.135 4.22163 138.511 3.58569 137.266 3.58569H134.378V23.3578H137.266V23.3ZM143.382 0.348155H142.872V0.174715H144.118V0.348155H143.608V1.96692H143.382V0.348155ZM144.288 0.174715H144.571L145.08 1.56223L145.591 0.174715H145.874V1.96692H145.647V0.463781L145.08 1.96692H145.024L144.402 0.463781V1.96692H144.231L144.288 0.174715Z" fill="#0A0F0D" fill-opacity="0.8"/>
</svg>
