<svg width="145" height="31" viewBox="0 0 145 31" fill="none" xmlns="http://www.w3.org/2000/svg">
<path d="M89.4867 13.3362L81.6637 5.37072V5.31552C81.1879 4.85653 80.5581 4.60647 79.9072 4.61806C79.2563 4.62965 78.6352 4.90199 78.1749 5.37764C77.7146 5.8533 77.451 6.49508 77.4398 7.16766C77.4286 7.84023 77.6706 8.49102 78.1148 8.98278L78.1682 9.0301L85.8767 17.106H89.5249V13.3362H89.4867Z" fill="#0A0F0D" fill-opacity="0.8"/>
<path d="M90.8242 22.2166L98.6319 30.182L98.6854 30.2372C99.156 30.7225 99.7939 30.9947 100.459 30.994C101.124 30.9932 101.761 30.7196 102.231 30.2333C102.7 29.747 102.964 29.0878 102.963 28.4008C102.962 27.7138 102.697 27.0552 102.227 26.57L102.181 26.5226L94.4724 18.4468H90.8242V22.2166Z" fill="#0A0F0D" fill-opacity="0.8"/>
<path d="M94.4495 17.106L102.158 9.0301L102.211 8.98278C102.656 8.49102 102.898 7.84023 102.886 7.16766C102.875 6.49508 102.612 5.8533 102.151 5.37764C101.691 4.90199 101.07 4.62965 100.419 4.61806C99.7682 4.60647 99.1384 4.85653 98.6625 5.31552L98.6167 5.37072L90.8242 13.3362V17.106H94.4495Z" fill="#0A0F0D" fill-opacity="0.8"/>
<path d="M85.8403 18.4469L78.1395 26.5148L78.086 26.5622C77.6154 27.0526 77.3526 27.7162 77.3555 28.4069C77.3569 28.7489 77.4235 29.0873 77.5515 29.4027C77.6794 29.7181 77.8663 30.0044 78.1013 30.2452C78.3363 30.486 78.615 30.6766 78.9213 30.8061C79.2276 30.9356 79.5556 31.0016 79.8866 31.0001C80.555 30.9971 81.1949 30.7199 81.6655 30.2294L81.7113 30.1742L89.5267 22.2166V18.439H85.8709L85.8403 18.4469Z" fill="#0A0F0D" fill-opacity="0.8"/>
<path d="M20.6756 27.0668L19.7521 13.4072C19.6452 11.8299 19.5765 10.5049 19.5765 9.14057C19.2865 10.6154 19.0728 11.5065 18.6454 13.0839L14.7301 27.0668H10.5019L6.97582 13.6596C6.65526 12.4056 6.2126 10.6075 5.976 9.13268C5.976 10.6469 5.90731 12.1532 5.80046 13.7306L4.94565 27.0668H0L2.28965 1.50635H8.66253L11.8986 14.3063C12.2525 15.6383 12.5379 16.9888 12.7534 18.3521C12.9896 16.9514 13.2953 15.5642 13.6692 14.1959L17.0121 1.50635H23.3468L25.5525 27.0668H20.6756ZM42.3357 28.0211C41.2542 27.5861 40.3492 26.7818 39.7713 25.7418C39.4304 26.1019 39.0629 26.4342 38.6723 26.7355C37.5803 27.4615 36.2985 27.8222 35.0012 27.7687C30.9485 27.7687 28.7428 25.6314 28.7428 21.8853C28.7428 17.4688 31.6965 15.4104 37.4969 15.4104H38.5654V14.6217C38.5654 12.5239 38.1685 11.822 36.4284 11.822C34.902 11.822 33.116 12.6107 31.1622 13.9593L29.132 10.4261C30.0665 9.80575 31.0555 9.27765 32.0857 8.84876C33.6544 8.12615 35.352 7.75008 37.0695 7.74464C40.1224 7.74464 42.2289 8.91974 42.9387 11.0176C43.262 12.1121 43.371 13.2623 43.2592 14.4009L43.1524 20.7102C43.1524 22.7686 43.2592 23.6519 44.862 24.9059L42.3357 28.0211ZM38.2754 18.8253C34.9707 18.8253 33.8258 19.4562 33.8258 21.696C33.7952 22.0029 33.8263 22.313 33.9172 22.6069C34.008 22.9008 34.1566 23.1721 34.3536 23.4038C34.5507 23.6356 34.7919 23.8228 35.0623 23.9537C35.3326 24.0846 35.6262 24.1564 35.9247 24.1645C36.4049 24.1406 36.875 24.0131 37.3048 23.7904C37.7346 23.5676 38.1146 23.2545 38.4204 22.8711L38.4891 18.8253H38.2754ZM53.4253 27.5084C51.0059 27.5084 49.0826 26.4043 48.5178 24.7481C48.2084 23.8162 48.0991 22.8259 48.1972 21.8459V11.5933H46.3808V8.2415H48.1972C48.1588 6.7538 48.2175 5.26512 48.3728 3.78557L53.2116 2.53949C53.0253 4.43409 52.931 6.33715 52.9292 8.2415H57.1956L55.9897 11.6248H52.9368V21.0888C52.9368 23.4547 53.3642 24.1014 54.9975 24.1014C55.5808 24.0619 56.156 23.9398 56.7071 23.7386L57.3101 26.6803C56.081 27.2195 54.7605 27.5009 53.4253 27.5084ZM68.3309 12.5397C67.909 12.2892 67.4284 12.1637 66.9419 12.1769C66.3728 12.1984 65.8156 12.3512 65.3111 12.6241C64.8066 12.8971 64.3677 13.2832 64.0264 13.7542V27.0668H59.2563V14.4877C59.3246 12.622 59.0978 10.7572 58.5846 8.96706L62.851 7.79196C63.3069 8.6109 63.5685 9.52983 63.6142 10.4734C64.6446 9.03804 66.11 7.79196 67.8883 7.79196C68.5043 7.76963 69.1159 7.90796 69.6666 8.19418L68.3309 12.5397ZM73.3453 6.10423C72.9594 6.10216 72.5777 6.02158 72.222 5.86708C71.8662 5.71258 71.5434 5.48718 71.272 5.20377C71.0005 4.92035 70.7858 4.58446 70.64 4.21528C70.4942 3.8461 70.4201 3.45086 70.4222 3.05212C70.4302 2.2384 70.7492 1.46095 71.3096 0.889232C71.8701 0.317517 72.6265 -0.00211329 73.414 1.05165e-05C73.7994 0.00101907 74.1809 0.0810005 74.5362 0.235328C74.8916 0.389654 75.2138 0.615263 75.4842 0.899101C75.7546 1.18294 75.9679 1.51937 76.1117 1.88893C76.2554 2.25849 76.3269 2.65385 76.3218 3.05212C76.3229 3.45523 76.2464 3.85453 76.0969 4.22686C75.9474 4.59918 75.7278 4.93712 75.4509 5.22106C75.174 5.50499 74.8453 5.72927 74.4838 5.88088C74.1224 6.03249 73.7354 6.10841 73.3453 6.10423ZM70.9793 27.0668V8.56485L75.7494 7.77619V27.0668H70.9793ZM106.927 6.10423C106.541 6.10217 106.16 6.02153 105.805 5.86693C105.449 5.71233 105.127 5.48681 104.856 5.20329C104.585 4.91977 104.371 4.58382 104.226 4.21469C104.081 3.84555 104.008 3.45048 104.011 3.05212C104.017 2.23911 104.335 1.46165 104.894 0.889719C105.453 0.317784 106.209 -0.00209821 106.996 1.05165e-05C107.381 0.00101907 107.762 0.0810005 108.118 0.235328C108.473 0.389654 108.795 0.615263 109.066 0.899101C109.336 1.18294 109.549 1.51937 109.693 1.88893C109.837 2.25849 109.908 2.65385 109.903 3.05212C109.904 3.45523 109.828 3.85453 109.679 4.22686C109.529 4.59918 109.309 4.93712 109.033 5.22106C108.756 5.50499 108.427 5.72927 108.065 5.88088C107.704 6.03249 107.317 6.10841 106.927 6.10423ZM104.561 27.0668V8.56485L109.323 7.77619V27.0668H104.561ZM125.397 28.0211C124.315 27.5861 123.41 26.7818 122.832 25.7418C122.493 26.1038 122.126 26.4362 121.733 26.7355C120.641 27.4615 119.36 27.8222 118.062 27.7687C114.01 27.7687 111.804 25.6314 111.804 21.8853C111.804 17.4688 114.758 15.4104 120.558 15.4104H121.626V14.6217C121.626 12.5239 121.23 11.822 119.489 11.822C117.963 11.822 116.177 12.6107 114.223 13.9593L112.193 10.4813C113.128 9.86095 114.117 9.33285 115.147 8.90397C116.715 8.18136 118.413 7.80529 120.131 7.79985C123.183 7.79985 125.29 8.97495 126 11.0728C126.323 12.1674 126.432 13.3175 126.32 14.4561L126.213 20.7654C126.213 22.8238 126.32 23.7071 127.923 24.9611L125.397 28.0211ZM121.352 18.8253C118.047 18.8253 116.91 19.4562 116.91 21.696C116.878 22.0031 116.908 22.3137 116.999 22.6081C117.089 22.9025 117.238 23.1743 117.435 23.4063C117.632 23.6383 117.874 23.8255 118.145 23.956C118.416 24.0865 118.71 24.1575 119.009 24.1645C119.485 24.1373 119.951 24.0083 120.376 23.7857C120.802 23.5631 121.178 23.2517 121.481 22.8711L121.55 18.8253H121.352ZM139.883 27.0668V14.8189C139.883 12.6895 139.524 12.0586 138.28 12.0586C137.021 12.2172 135.852 12.8155 134.968 13.7542V27.0668H130.197V13.4072C130.22 11.9086 130.004 10.4164 129.556 8.99072L133.792 7.74464C134.214 8.45885 134.448 9.27434 134.471 10.1106C135.144 9.60268 135.844 9.13655 136.57 8.71469C137.59 8.20028 138.71 7.93068 139.844 7.92603C141.875 7.92603 143.661 9.02227 144.225 10.6469C144.495 11.5123 144.613 12.4201 144.576 13.3283V27.0668H139.883Z" fill="#0A0F0D" fill-opacity="0.8"/>
</svg>
